<svg width="24" height="24" viewBox="0 0 24 24" fill="none" xmlns="http://www.w3.org/2000/svg">
<path d="M3.17102 7.44006L12.001 12.55L20.771 7.47003" stroke="#292D32" stroke-width="1.5" stroke-linecap="round" stroke-linejoin="round"/>
<path d="M12.001 21.61V12.54" stroke="#292D32" stroke-width="1.5" stroke-linecap="round" stroke-linejoin="round"/>
<path d="M2.39099 9.17007C2.39099 7.79007 3.38097 6.11009 4.59097 5.44009L9.93097 2.47006C11.071 1.84006 12.941 1.84006 14.081 2.47006L19.421 5.44009C20.631 6.11009 21.621 7.79007 21.621 9.17007V14.8201C21.621 16.2001 20.631 17.8801 19.421 18.5501L14.081 21.5201C12.941 22.1501 11.071 22.1501 9.93097 21.5201L4.59097 18.5501C3.38097 17.8801 2.39099 16.2001 2.39099 14.8201V14.0001" stroke="#292D32" stroke-width="1.5" stroke-linecap="round" stroke-linejoin="round"/>
<path d="M17.001 13.24V9.58002L10.931 6.07001L9.88098 5.46997L7.51099 4.09998" stroke="#292D32" stroke-width="1.5" stroke-linecap="round" stroke-linejoin="round"/>
</svg>
